<?xml version="1.0" standalone="no"?>
<!DOCTYPE svg PUBLIC "-//W3C//DTD SVG 20010904//EN"
 "http://www.w3.org/TR/2001/REC-SVG-20010904/DTD/svg10.dtd">
<svg version="1.0" xmlns="http://www.w3.org/2000/svg"
 width="678.000000pt" height="1280.000000pt" viewBox="0 0 678.000000 1280.000000"
 preserveAspectRatio="xMidYMid meet">
<g transform="translate(0.000000,1280.000000) scale(0.100000,-0.100000)"
fill="#8bc34a" stroke="none">
<path d="M2570 12406 c0 -222 -4 -397 -9 -400 -5 -3 -69 -24 -142 -46 -1105
-332 -1782 -928 -2014 -1775 -72 -262 -90 -414 -90 -745 0 -296 10 -396 62
-615 78 -333 236 -653 461 -935 98 -124 288 -312 427 -423 118 -95 368 -265
504 -341 194 -111 527 -267 716 -337 33 -12 66 -26 73 -32 9 -7 12 -494 12
-2374 0 -2105 -2 -2364 -15 -2369 -38 -15 -454 79 -651 147 -327 113 -580 261
-801 471 -374 355 -532 611 -469 761 26 64 58 70 201 40 142 -29 221 -27 341
12 204 64 396 245 469 440 74 196 76 458 6 646 -86 228 -314 429 -568 501
-105 30 -282 29 -396 -1 -236 -62 -439 -251 -571 -532 -73 -154 -123 -383
-113 -519 39 -533 248 -1006 644 -1452 312 -352 779 -621 1379 -793 146 -42
464 -115 501 -115 11 0 24 -5 31 -12 9 -9 12 -203 12 -810 l0 -798 170 0 170
0 0 773 c0 424 4 778 9 786 7 10 34 12 127 9 234 -9 523 10 827 54 127 18 150
19 158 7 5 -8 9 -360 9 -821 l0 -808 170 0 170 0 0 864 c0 681 3 866 12 873 7
4 96 35 198 69 887 295 1478 784 1865 1544 153 302 250 607 289 910 35 274 38
320 33 425 -42 875 -327 1505 -944 2086 -318 299 -795 602 -1298 824 -71 31
-136 62 -142 67 -10 8 -13 421 -13 2001 l0 1990 60 -6 c128 -14 393 -76 567
-132 230 -76 390 -158 573 -296 198 -149 311 -286 295 -359 -10 -45 -93 -112
-218 -176 -195 -100 -285 -170 -368 -288 -100 -141 -134 -282 -126 -512 5
-167 24 -248 81 -362 131 -261 361 -406 641 -406 166 0 294 42 429 138 168
120 276 276 326 471 33 126 39 383 12 540 -47 275 -167 536 -359 783 -86 110
-256 286 -353 365 -341 276 -842 482 -1405 578 -71 12 -136 27 -142 32 -10 7
-13 98 -13 393 l0 384 -170 0 -170 0 0 -364 c0 -294 -3 -366 -14 -375 -10 -8
-66 -7 -217 4 -258 19 -476 19 -698 0 -129 -11 -178 -12 -188 -4 -10 9 -13 83
-13 375 l0 364 -170 0 -170 0 0 -394z m1168 -716 c84 -5 179 -10 211 -10 41 0
65 -5 75 -16 14 -14 16 -201 16 -1913 0 -1507 -3 -1901 -12 -1909 -26 -21
-1070 363 -1105 406 -10 13 -13 368 -13 1703 0 1337 3 1689 13 1697 12 10 371
49 497 54 73 3 103 2 318 -12z m-1170 -1690 c1 -861 -2 -1568 -7 -1573 -19
-19 -425 183 -618 309 -345 224 -572 473 -696 764 -158 372 -117 869 101 1233
157 264 399 477 730 645 176 90 436 194 472 189 13 -2 15 -185 18 -1567z m911
-3681 c295 -126 542 -237 549 -246 9 -13 12 -431 12 -2012 0 -1160 -4 -2002
-9 -2010 -10 -15 -52 -22 -396 -63 -232 -27 -679 -33 -708 -9 -16 12 -17 184
-17 2286 0 1249 3 2275 7 2278 3 4 11 7 16 7 5 0 251 -104 546 -231z m1186
-518 c327 -163 555 -321 756 -522 350 -351 518 -757 519 -1251 1 -715 -314
-1242 -969 -1620 -161 -93 -477 -232 -558 -245 l-33 -6 0 1883 0 1883 33 -7
c17 -3 131 -55 252 -115z"/>
</g>
</svg>
